<mxfile host="app.diagrams.net" agent="Mozilla/5.0 (Windows NT 10.0; Win64; x64) AppleWebKit/537.36 (KHTML, like Gecko) Chrome/136.0.0.0 Safari/537.36" version="27.0.5">
  <diagram name="Trang-1" id="CBktw8LjjPqlXenU8z73">
    <mxGraphModel dx="1747" dy="2200" grid="1" gridSize="10" guides="1" tooltips="1" connect="1" arrows="1" fold="1" page="1" pageScale="1" pageWidth="827" pageHeight="1169" math="0" shadow="0">
      <root>
        <mxCell id="0" />
        <mxCell id="1" parent="0" />
        <mxCell id="j7tLyzOSQEP2s9YdGMt_-1" value="Guest" style="shape=umlActor;verticalLabelPosition=bottom;verticalAlign=top;html=1;outlineConnect=0;" parent="1" vertex="1">
          <mxGeometry x="110" y="90" width="30" height="60" as="geometry" />
        </mxCell>
        <mxCell id="j7tLyzOSQEP2s9YdGMt_-2" value="" style="swimlane;startSize=0;fontSize=20;strokeColor=default;strokeWidth=3;" parent="1" vertex="1">
          <mxGeometry x="180" y="-70" width="1470" height="1000" as="geometry" />
        </mxCell>
        <mxCell id="j7tLyzOSQEP2s9YdGMt_-3" value="&lt;span style=&quot;font-size:11.0pt;line-height:107%;&lt;br/&gt;font-family:&amp;quot;Calibri&amp;quot;,sans-serif;mso-ascii-theme-font:minor-latin;mso-fareast-font-family:&lt;br/&gt;Calibri;mso-fareast-theme-font:minor-latin;mso-hansi-theme-font:minor-latin;&lt;br/&gt;mso-bidi-font-family:&amp;quot;Times New Roman&amp;quot;;mso-bidi-theme-font:minor-bidi;&lt;br/&gt;mso-ansi-language:EN-US;mso-fareast-language:EN-US;mso-bidi-language:AR-SA&quot;&gt;view&lt;br/&gt;medical facility introductions&lt;/span&gt;" style="ellipse;whiteSpace=wrap;html=1;" parent="j7tLyzOSQEP2s9YdGMt_-2" vertex="1">
          <mxGeometry x="50" y="30" width="120" height="80" as="geometry" />
        </mxCell>
        <mxCell id="j7tLyzOSQEP2s9YdGMt_-4" value="View&amp;nbsp;&lt;span style=&quot;font-size:11.0pt;line-height:107%;&lt;br/&gt;font-family:&amp;quot;Calibri&amp;quot;,sans-serif;mso-ascii-theme-font:minor-latin;mso-fareast-font-family:&lt;br/&gt;Calibri;mso-fareast-theme-font:minor-latin;mso-hansi-theme-font:minor-latin;&lt;br/&gt;mso-bidi-font-family:&amp;quot;Times New Roman&amp;quot;;mso-bidi-theme-font:minor-bidi;&lt;br/&gt;mso-ansi-language:EN-US;mso-fareast-language:EN-US;mso-bidi-language:AR-SA&quot;&gt;documents&lt;br/&gt;on blood types&lt;/span&gt;" style="ellipse;whiteSpace=wrap;html=1;" parent="j7tLyzOSQEP2s9YdGMt_-2" vertex="1">
          <mxGeometry x="250" y="30" width="120" height="80" as="geometry" />
        </mxCell>
        <mxCell id="j7tLyzOSQEP2s9YdGMt_-5" value="view&amp;nbsp;&lt;span style=&quot;font-size:11.0pt;line-height:107%;&lt;br/&gt;font-family:&amp;quot;Calibri&amp;quot;,sans-serif;mso-ascii-theme-font:minor-latin;mso-fareast-font-family:&lt;br/&gt;Calibri;mso-fareast-theme-font:minor-latin;mso-hansi-theme-font:minor-latin;&lt;br/&gt;mso-bidi-font-family:&amp;quot;Times New Roman&amp;quot;;mso-bidi-theme-font:minor-bidi;&lt;br/&gt;mso-ansi-language:EN-US;mso-fareast-language:EN-US;mso-bidi-language:AR-SA&quot;&gt;&amp;nbsp;blogs sharing experiences&lt;/span&gt;" style="ellipse;whiteSpace=wrap;html=1;" parent="j7tLyzOSQEP2s9YdGMt_-2" vertex="1">
          <mxGeometry x="450" y="30" width="120" height="80" as="geometry" />
        </mxCell>
        <mxCell id="j7tLyzOSQEP2s9YdGMt_-7" value="&lt;span style=&quot;font-size:11.0pt;line-height:107%;&lt;br/&gt;font-family:&amp;quot;Calibri&amp;quot;,sans-serif;mso-ascii-theme-font:minor-latin;mso-fareast-font-family:&lt;br/&gt;Calibri;mso-fareast-theme-font:minor-latin;mso-hansi-theme-font:minor-latin;&lt;br/&gt;mso-bidi-font-family:&amp;quot;Times New Roman&amp;quot;;mso-bidi-theme-font:minor-bidi;&lt;br/&gt;mso-ansi-language:EN-US;mso-fareast-language:EN-US;mso-bidi-language:AR-SA&quot;&gt;login&amp;nbsp;&lt;/span&gt;" style="ellipse;whiteSpace=wrap;html=1;" parent="j7tLyzOSQEP2s9YdGMt_-2" vertex="1">
          <mxGeometry x="50" y="190" width="120" height="80" as="geometry" />
        </mxCell>
        <mxCell id="j7tLyzOSQEP2s9YdGMt_-9" value="&lt;span style=&quot;font-size:11.0pt;line-height:107%;&lt;br/&gt;font-family:&amp;quot;Calibri&amp;quot;,sans-serif;mso-ascii-theme-font:minor-latin;mso-fareast-font-family:&lt;br/&gt;Calibri;mso-fareast-theme-font:minor-latin;mso-hansi-theme-font:minor-latin;&lt;br/&gt;mso-bidi-font-family:&amp;quot;Times New Roman&amp;quot;;mso-bidi-theme-font:minor-bidi;&lt;br/&gt;mso-ansi-language:EN-US;mso-fareast-language:EN-US;mso-bidi-language:AR-SA&quot;&gt;Register&lt;/span&gt;" style="ellipse;whiteSpace=wrap;html=1;" parent="j7tLyzOSQEP2s9YdGMt_-2" vertex="1">
          <mxGeometry x="50" y="350" width="120" height="80" as="geometry" />
        </mxCell>
        <mxCell id="j7tLyzOSQEP2s9YdGMt_-12" value="&lt;span style=&quot;font-size: 14.6667px;&quot;&gt;Login by OTP code&lt;/span&gt;" style="ellipse;whiteSpace=wrap;html=1;" parent="j7tLyzOSQEP2s9YdGMt_-2" vertex="1">
          <mxGeometry x="250" y="190" width="120" height="80" as="geometry" />
        </mxCell>
        <mxCell id="j7tLyzOSQEP2s9YdGMt_-16" value="&amp;lt;&amp;lt;extend&amp;gt;&amp;gt;" style="endArrow=open;startArrow=none;endFill=0;startFill=0;endSize=8;html=1;verticalAlign=bottom;dashed=1;labelBackgroundColor=none;rounded=0;entryX=1;entryY=0.5;entryDx=0;entryDy=0;exitX=0;exitY=0.5;exitDx=0;exitDy=0;" parent="j7tLyzOSQEP2s9YdGMt_-2" source="j7tLyzOSQEP2s9YdGMt_-12" target="j7tLyzOSQEP2s9YdGMt_-7" edge="1">
          <mxGeometry width="160" relative="1" as="geometry">
            <mxPoint x="170" y="240" as="sourcePoint" />
            <mxPoint x="290" y="240" as="targetPoint" />
          </mxGeometry>
        </mxCell>
        <mxCell id="j7tLyzOSQEP2s9YdGMt_-30" value="&lt;span style=&quot;font-size:11.0pt;line-height:107%;&lt;br/&gt;font-family:&amp;quot;Calibri&amp;quot;,sans-serif;mso-ascii-theme-font:minor-latin;mso-fareast-font-family:&lt;br/&gt;Calibri;mso-fareast-theme-font:minor-latin;mso-hansi-theme-font:minor-latin;&lt;br/&gt;mso-bidi-font-family:&amp;quot;Times New Roman&amp;quot;;mso-bidi-theme-font:minor-bidi;&lt;br/&gt;mso-ansi-language:EN-US;mso-fareast-language:EN-US;mso-bidi-language:AR-SA&quot;&gt;Create&lt;br/&gt;a blood donation application&lt;/span&gt;" style="ellipse;whiteSpace=wrap;html=1;" parent="j7tLyzOSQEP2s9YdGMt_-2" vertex="1">
          <mxGeometry x="40" y="510" width="120" height="80" as="geometry" />
        </mxCell>
        <mxCell id="j7tLyzOSQEP2s9YdGMt_-31" value="&lt;div&gt;&lt;span style=&quot;font-size:11.0pt;line-height:107%;&lt;br/&gt;font-family:&amp;quot;Calibri&amp;quot;,sans-serif;mso-ascii-theme-font:minor-latin;mso-fareast-font-family:&lt;br/&gt;Calibri;mso-fareast-theme-font:minor-latin;mso-hansi-theme-font:minor-latin;&lt;br/&gt;mso-bidi-font-family:&amp;quot;Times New Roman&amp;quot;;mso-bidi-theme-font:minor-bidi;&lt;br/&gt;mso-ansi-language:EN-US;mso-fareast-language:EN-US;mso-bidi-language:AR-SA&quot;&gt;search for blood groups that can be donated&lt;/span&gt;&lt;/div&gt;" style="ellipse;whiteSpace=wrap;html=1;" parent="j7tLyzOSQEP2s9YdGMt_-2" vertex="1">
          <mxGeometry x="450" y="670" width="120" height="80" as="geometry" />
        </mxCell>
        <mxCell id="j7tLyzOSQEP2s9YdGMt_-32" value="&lt;span style=&quot;font-size:11.0pt;line-height:107%;&lt;br/&gt;font-family:&amp;quot;Calibri&amp;quot;,sans-serif;mso-ascii-theme-font:minor-latin;mso-fareast-font-family:&lt;br/&gt;Calibri;mso-fareast-theme-font:minor-latin;mso-hansi-theme-font:minor-latin;&lt;br/&gt;mso-bidi-font-family:&amp;quot;Times New Roman&amp;quot;;mso-bidi-theme-font:minor-bidi;&lt;br/&gt;mso-ansi-language:EN-US;mso-fareast-language:EN-US;mso-bidi-language:AR-SA&quot;&gt;view&lt;br/&gt;blood donation schedule&lt;/span&gt;" style="ellipse;whiteSpace=wrap;html=1;" parent="j7tLyzOSQEP2s9YdGMt_-2" vertex="1">
          <mxGeometry x="40" y="670" width="120" height="80" as="geometry" />
        </mxCell>
        <mxCell id="j7tLyzOSQEP2s9YdGMt_-33" value="&lt;span style=&quot;font-size: 11pt; line-height: 15.6933px;&quot;&gt;view&lt;br&gt;information on suitable blood groups&lt;/span&gt;&lt;div&gt;&lt;span style=&quot;font-size: 11pt; line-height: 15.6933px;&quot;&gt;search&lt;/span&gt;&lt;/div&gt;" style="ellipse;whiteSpace=wrap;html=1;" parent="j7tLyzOSQEP2s9YdGMt_-2" vertex="1">
          <mxGeometry x="250" y="670" width="120" height="80" as="geometry" />
        </mxCell>
        <mxCell id="j7tLyzOSQEP2s9YdGMt_-40" value="&lt;span style=&quot;font-size: 14.6667px;&quot;&gt;Update personal information&lt;/span&gt;" style="ellipse;whiteSpace=wrap;html=1;" parent="j7tLyzOSQEP2s9YdGMt_-2" vertex="1">
          <mxGeometry x="40" y="830" width="120" height="80" as="geometry" />
        </mxCell>
        <mxCell id="j7tLyzOSQEP2s9YdGMt_-41" value="&lt;span style=&quot;font-size:11.0pt;line-height:107%;&lt;br/&gt;font-family:&amp;quot;Calibri&amp;quot;,sans-serif;mso-ascii-theme-font:minor-latin;mso-fareast-font-family:&lt;br/&gt;Calibri;mso-fareast-theme-font:minor-latin;mso-hansi-theme-font:minor-latin;&lt;br/&gt;mso-bidi-font-family:&amp;quot;Times New Roman&amp;quot;;mso-bidi-theme-font:minor-bidi;&lt;br/&gt;mso-ansi-language:EN-US;mso-fareast-language:EN-US;mso-bidi-language:AR-SA&quot;&gt;search information&lt;br/&gt;on suitable blood groups&amp;nbsp;&lt;/span&gt;" style="ellipse;whiteSpace=wrap;html=1;" parent="j7tLyzOSQEP2s9YdGMt_-2" vertex="1">
          <mxGeometry x="250" y="830" width="120" height="80" as="geometry" />
        </mxCell>
        <mxCell id="j7tLyzOSQEP2s9YdGMt_-42" value="&lt;span style=&quot;font-size:11.0pt;line-height:107%;&lt;br/&gt;font-family:&amp;quot;Calibri&amp;quot;,sans-serif;mso-ascii-theme-font:minor-latin;mso-fareast-font-family:&lt;br/&gt;Calibri;mso-fareast-theme-font:minor-latin;mso-hansi-theme-font:minor-latin;&lt;br/&gt;mso-bidi-font-family:&amp;quot;Times New Roman&amp;quot;;mso-bidi-theme-font:minor-bidi;&lt;br/&gt;mso-ansi-language:EN-US;mso-fareast-language:EN-US;mso-bidi-language:AR-SA&quot;&gt;Search&lt;br/&gt;for blood groups that can be donated&lt;/span&gt;" style="ellipse;whiteSpace=wrap;html=1;" parent="j7tLyzOSQEP2s9YdGMt_-2" vertex="1">
          <mxGeometry x="450" y="830" width="120" height="80" as="geometry" />
        </mxCell>
        <mxCell id="j7tLyzOSQEP2s9YdGMt_-46" value="&lt;span style=&quot;font-size:11.0pt;line-height:107%;&lt;br/&gt;font-family:&amp;quot;Calibri&amp;quot;,sans-serif;mso-ascii-theme-font:minor-latin;mso-fareast-font-family:&lt;br/&gt;Calibri;mso-fareast-theme-font:minor-latin;mso-hansi-theme-font:minor-latin;&lt;br/&gt;mso-bidi-font-family:&amp;quot;Times New Roman&amp;quot;;mso-bidi-theme-font:minor-bidi;&lt;br/&gt;mso-ansi-language:EN-US;mso-fareast-language:EN-US;mso-bidi-language:AR-SA&quot;&gt;Search&lt;br/&gt;for blood groups that can be donated&lt;/span&gt;" style="ellipse;whiteSpace=wrap;html=1;" parent="j7tLyzOSQEP2s9YdGMt_-2" vertex="1">
          <mxGeometry x="650" y="840" width="120" height="80" as="geometry" />
        </mxCell>
        <mxCell id="j7tLyzOSQEP2s9YdGMt_-47" value="&lt;span style=&quot;font-size:11.0pt;line-height:107%;&lt;br/&gt;font-family:&amp;quot;Calibri&amp;quot;,sans-serif;mso-ascii-theme-font:minor-latin;mso-fareast-font-family:&lt;br/&gt;Calibri;mso-fareast-theme-font:minor-latin;mso-hansi-theme-font:minor-latin;&lt;br/&gt;mso-bidi-font-family:&amp;quot;Times New Roman&amp;quot;;mso-bidi-theme-font:minor-bidi;&lt;br/&gt;mso-ansi-language:EN-US;mso-fareast-language:EN-US;mso-bidi-language:AR-SA&quot;&gt;Search&lt;br/&gt;for blood groups that can be donated&lt;/span&gt;" style="ellipse;whiteSpace=wrap;html=1;" parent="j7tLyzOSQEP2s9YdGMt_-2" vertex="1">
          <mxGeometry x="660" y="670" width="120" height="80" as="geometry" />
        </mxCell>
        <mxCell id="j7tLyzOSQEP2s9YdGMt_-48" value="&lt;span style=&quot;font-size:11.0pt;line-height:107%;&lt;br/&gt;font-family:&amp;quot;Calibri&amp;quot;,sans-serif;mso-ascii-theme-font:minor-latin;mso-fareast-font-family:&lt;br/&gt;Calibri;mso-fareast-theme-font:minor-latin;mso-hansi-theme-font:minor-latin;&lt;br/&gt;mso-bidi-font-family:&amp;quot;Times New Roman&amp;quot;;mso-bidi-theme-font:minor-bidi;&lt;br/&gt;mso-ansi-language:EN-US;mso-fareast-language:EN-US;mso-bidi-language:AR-SA&quot;&gt;Search&lt;br/&gt;for blood groups that can be donated&lt;/span&gt;" style="ellipse;whiteSpace=wrap;html=1;" parent="j7tLyzOSQEP2s9YdGMt_-2" vertex="1">
          <mxGeometry x="860" y="670" width="120" height="80" as="geometry" />
        </mxCell>
        <mxCell id="j7tLyzOSQEP2s9YdGMt_-50" value="&amp;lt;&amp;lt;extend&amp;gt;&amp;gt;" style="endArrow=open;startArrow=none;endFill=0;startFill=0;endSize=8;html=1;verticalAlign=bottom;dashed=1;labelBackgroundColor=none;rounded=0;entryX=1;entryY=0.5;entryDx=0;entryDy=0;exitX=0;exitY=0.5;exitDx=0;exitDy=0;" parent="j7tLyzOSQEP2s9YdGMt_-2" source="j7tLyzOSQEP2s9YdGMt_-47" target="j7tLyzOSQEP2s9YdGMt_-42" edge="1">
          <mxGeometry width="160" relative="1" as="geometry">
            <mxPoint x="770" y="410" as="sourcePoint" />
            <mxPoint x="672" y="278" as="targetPoint" />
          </mxGeometry>
        </mxCell>
        <mxCell id="j7tLyzOSQEP2s9YdGMt_-54" value="&lt;font style=&quot;font-size: 14.6667px;&quot;&gt;Enter information as required&lt;/font&gt;" style="ellipse;whiteSpace=wrap;html=1;" parent="j7tLyzOSQEP2s9YdGMt_-2" vertex="1">
          <mxGeometry x="250" y="510" width="120" height="80" as="geometry" />
        </mxCell>
        <mxCell id="j7tLyzOSQEP2s9YdGMt_-56" value="&amp;lt;&amp;lt;include&amp;gt;&amp;gt;" style="endArrow=open;startArrow=none;endFill=0;startFill=0;endSize=8;html=1;verticalAlign=bottom;dashed=1;labelBackgroundColor=none;rounded=0;entryX=0;entryY=0.5;entryDx=0;entryDy=0;exitX=1;exitY=0.5;exitDx=0;exitDy=0;" parent="j7tLyzOSQEP2s9YdGMt_-2" source="j7tLyzOSQEP2s9YdGMt_-30" target="j7tLyzOSQEP2s9YdGMt_-54" edge="1">
          <mxGeometry width="160" relative="1" as="geometry">
            <mxPoint x="550" y="360" as="sourcePoint" />
            <mxPoint x="452" y="228" as="targetPoint" />
          </mxGeometry>
        </mxCell>
        <mxCell id="j7tLyzOSQEP2s9YdGMt_-57" value="&lt;font style=&quot;font-size: 14.6667px;&quot;&gt;Register and describe in case of emergency&lt;/font&gt;" style="ellipse;whiteSpace=wrap;html=1;" parent="j7tLyzOSQEP2s9YdGMt_-2" vertex="1">
          <mxGeometry x="650" y="510" width="120" height="80" as="geometry" />
        </mxCell>
        <mxCell id="j7tLyzOSQEP2s9YdGMt_-59" value="&amp;lt;&amp;lt;extend&amp;gt;&amp;gt;" style="endArrow=open;startArrow=none;endFill=0;startFill=0;endSize=8;html=1;verticalAlign=bottom;dashed=1;labelBackgroundColor=none;rounded=0;entryX=1;entryY=0.5;entryDx=0;entryDy=0;exitX=0;exitY=0.5;exitDx=0;exitDy=0;" parent="j7tLyzOSQEP2s9YdGMt_-2" source="j7tLyzOSQEP2s9YdGMt_-57" edge="1">
          <mxGeometry width="160" relative="1" as="geometry">
            <mxPoint x="760" y="310" as="sourcePoint" />
            <mxPoint x="560" y="550" as="targetPoint" />
          </mxGeometry>
        </mxCell>
        <mxCell id="TcsEyUq_swscGmDeJt4e-3" value="&lt;font style=&quot;font-size: 14.6667px;&quot;&gt;Create blood donation form&lt;/font&gt;" style="ellipse;whiteSpace=wrap;html=1;" vertex="1" parent="j7tLyzOSQEP2s9YdGMt_-2">
          <mxGeometry x="450" y="510" width="120" height="80" as="geometry" />
        </mxCell>
        <mxCell id="TcsEyUq_swscGmDeJt4e-6" value="Search for blood donors and recipients by distancev" style="ellipse;whiteSpace=wrap;html=1;" vertex="1" parent="j7tLyzOSQEP2s9YdGMt_-2">
          <mxGeometry x="1260" y="350" width="120" height="80" as="geometry" />
        </mxCell>
        <mxCell id="TcsEyUq_swscGmDeJt4e-7" value="Update personal information" style="ellipse;whiteSpace=wrap;html=1;" vertex="1" parent="j7tLyzOSQEP2s9YdGMt_-2">
          <mxGeometry x="1060.5" y="350" width="120" height="80" as="geometry" />
        </mxCell>
        <mxCell id="TcsEyUq_swscGmDeJt4e-8" value="View blood quantity statistics by medical facility group" style="ellipse;whiteSpace=wrap;html=1;" vertex="1" parent="j7tLyzOSQEP2s9YdGMt_-2">
          <mxGeometry x="1260" y="30" width="120" height="80" as="geometry" />
        </mxCell>
        <mxCell id="TcsEyUq_swscGmDeJt4e-9" value="Confirm blood donation/request application" style="ellipse;whiteSpace=wrap;html=1;" vertex="1" parent="j7tLyzOSQEP2s9YdGMt_-2">
          <mxGeometry x="660" y="30" width="120" height="80" as="geometry" />
        </mxCell>
        <mxCell id="TcsEyUq_swscGmDeJt4e-10" value="update blood donation report status" style="ellipse;whiteSpace=wrap;html=1;" vertex="1" parent="j7tLyzOSQEP2s9YdGMt_-2">
          <mxGeometry x="1260" y="190" width="120" height="80" as="geometry" />
        </mxCell>
        <mxCell id="TcsEyUq_swscGmDeJt4e-11" value="&lt;span style=&quot;font-size:11.0pt;line-height:107%;&lt;br/&gt;font-family:&amp;quot;Calibri&amp;quot;,sans-serif;mso-ascii-theme-font:minor-latin;mso-fareast-font-family:&lt;br/&gt;Calibri;mso-fareast-theme-font:minor-latin;mso-hansi-theme-font:minor-latin;&lt;br/&gt;mso-bidi-font-family:&amp;quot;Times New Roman&amp;quot;;mso-bidi-theme-font:minor-bidi;&lt;br/&gt;mso-ansi-language:EN-US;mso-fareast-language:EN-US;mso-bidi-language:AR-SA&quot;&gt;View&lt;br/&gt;user information&lt;/span&gt;" style="ellipse;whiteSpace=wrap;html=1;" vertex="1" parent="j7tLyzOSQEP2s9YdGMt_-2">
          <mxGeometry x="1060.5" y="30" width="120" height="80" as="geometry" />
        </mxCell>
        <mxCell id="TcsEyUq_swscGmDeJt4e-12" value="&lt;span style=&quot;font-size:11.0pt;line-height:107%;&lt;br/&gt;font-family:&amp;quot;Calibri&amp;quot;,sans-serif;mso-ascii-theme-font:minor-latin;mso-fareast-font-family:&lt;br/&gt;Calibri;mso-fareast-theme-font:minor-latin;mso-hansi-theme-font:minor-latin;&lt;br/&gt;mso-bidi-font-family:&amp;quot;Times New Roman&amp;quot;;mso-bidi-theme-font:minor-bidi;&lt;br/&gt;mso-ansi-language:EN-US;mso-fareast-language:EN-US;mso-bidi-language:AR-SA&quot;&gt;view user&lt;br&gt;donation/ request blood history&lt;/span&gt;" style="ellipse;whiteSpace=wrap;html=1;" vertex="1" parent="j7tLyzOSQEP2s9YdGMt_-2">
          <mxGeometry x="860" y="30" width="120" height="80" as="geometry" />
        </mxCell>
        <mxCell id="TcsEyUq_swscGmDeJt4e-20" value="&lt;font style=&quot;font-size: 14.6667px;&quot;&gt;Make Payment for Blood Request&lt;/font&gt;" style="ellipse;whiteSpace=wrap;html=1;" vertex="1" parent="j7tLyzOSQEP2s9YdGMt_-2">
          <mxGeometry x="450" y="350" width="120" height="80" as="geometry" />
        </mxCell>
        <mxCell id="TcsEyUq_swscGmDeJt4e-22" value="&amp;lt;&amp;lt;include&amp;gt;&amp;gt;" style="endArrow=open;startArrow=none;endFill=0;startFill=0;endSize=8;html=1;verticalAlign=bottom;dashed=1;labelBackgroundColor=none;rounded=0;entryX=0.5;entryY=1;entryDx=0;entryDy=0;exitX=0.5;exitY=0;exitDx=0;exitDy=0;" edge="1" parent="j7tLyzOSQEP2s9YdGMt_-2" source="TcsEyUq_swscGmDeJt4e-3" target="TcsEyUq_swscGmDeJt4e-20">
          <mxGeometry width="160" relative="1" as="geometry">
            <mxPoint x="570" y="460" as="sourcePoint" />
            <mxPoint x="660" y="460" as="targetPoint" />
          </mxGeometry>
        </mxCell>
        <mxCell id="TcsEyUq_swscGmDeJt4e-23" value="&lt;font style=&quot;font-size: 14.6667px;&quot;&gt;View transaction history&lt;/font&gt;" style="ellipse;whiteSpace=wrap;html=1;" vertex="1" parent="j7tLyzOSQEP2s9YdGMt_-2">
          <mxGeometry x="250" y="350" width="120" height="80" as="geometry" />
        </mxCell>
        <mxCell id="TcsEyUq_swscGmDeJt4e-25" value="&lt;font style=&quot;font-size: 14.6667px;&quot;&gt;Request Refund for Blood Request&lt;/font&gt;" style="ellipse;whiteSpace=wrap;html=1;" vertex="1" parent="j7tLyzOSQEP2s9YdGMt_-2">
          <mxGeometry x="660" y="350" width="120" height="80" as="geometry" />
        </mxCell>
        <mxCell id="TcsEyUq_swscGmDeJt4e-26" value="&amp;lt;&amp;lt;extend&amp;gt;&amp;gt;" style="endArrow=open;startArrow=none;endFill=0;startFill=0;endSize=8;html=1;verticalAlign=bottom;dashed=1;labelBackgroundColor=none;rounded=0;entryX=1;entryY=0.5;entryDx=0;entryDy=0;exitX=0;exitY=0.5;exitDx=0;exitDy=0;" edge="1" source="TcsEyUq_swscGmDeJt4e-25" parent="j7tLyzOSQEP2s9YdGMt_-2">
          <mxGeometry width="160" relative="1" as="geometry">
            <mxPoint x="770" y="150" as="sourcePoint" />
            <mxPoint x="570" y="390" as="targetPoint" />
          </mxGeometry>
        </mxCell>
        <mxCell id="TcsEyUq_swscGmDeJt4e-27" value="&lt;font style=&quot;font-size: 14.6667px;&quot;&gt;Request Cancel for Blood Request&lt;/font&gt;" style="ellipse;whiteSpace=wrap;html=1;" vertex="1" parent="j7tLyzOSQEP2s9YdGMt_-2">
          <mxGeometry x="450" y="190" width="120" height="80" as="geometry" />
        </mxCell>
        <mxCell id="TcsEyUq_swscGmDeJt4e-28" value="&amp;lt;&amp;lt;extend&amp;gt;&amp;gt;" style="endArrow=open;startArrow=none;endFill=0;startFill=0;endSize=8;html=1;verticalAlign=bottom;dashed=1;labelBackgroundColor=none;rounded=0;entryX=0.5;entryY=0;entryDx=0;entryDy=0;exitX=0.5;exitY=1;exitDx=0;exitDy=0;" edge="1" source="TcsEyUq_swscGmDeJt4e-27" parent="j7tLyzOSQEP2s9YdGMt_-2" target="TcsEyUq_swscGmDeJt4e-20">
          <mxGeometry width="160" relative="1" as="geometry">
            <mxPoint x="560" y="-10" as="sourcePoint" />
            <mxPoint x="360" y="230" as="targetPoint" />
          </mxGeometry>
        </mxCell>
        <mxCell id="TcsEyUq_swscGmDeJt4e-32" value="&lt;span style=&quot;font-size: 14.6667px;&quot;&gt;View financial statistics&lt;/span&gt;" style="ellipse;whiteSpace=wrap;html=1;" vertex="1" parent="j7tLyzOSQEP2s9YdGMt_-2">
          <mxGeometry x="1250" y="670" width="120" height="80" as="geometry" />
        </mxCell>
        <mxCell id="TcsEyUq_swscGmDeJt4e-33" value="&lt;span style=&quot;font-size: 14.6667px;&quot;&gt;View employee as user reports to the system&lt;/span&gt;" style="ellipse;whiteSpace=wrap;html=1;" vertex="1" parent="j7tLyzOSQEP2s9YdGMt_-2">
          <mxGeometry x="1061" y="670" width="120" height="80" as="geometry" />
        </mxCell>
        <mxCell id="TcsEyUq_swscGmDeJt4e-34" value="&lt;span style=&quot;font-size: 14.6667px;&quot;&gt;View blood donor statistics&lt;/span&gt;" style="ellipse;whiteSpace=wrap;html=1;" vertex="1" parent="j7tLyzOSQEP2s9YdGMt_-2">
          <mxGeometry x="1260" y="830" width="120" height="80" as="geometry" />
        </mxCell>
        <mxCell id="TcsEyUq_swscGmDeJt4e-35" value="&lt;span style=&quot;font-size: 14.6667px;&quot;&gt;View Blood Donation and Blood Request Statistics&lt;/span&gt;" style="ellipse;whiteSpace=wrap;html=1;" vertex="1" parent="j7tLyzOSQEP2s9YdGMt_-2">
          <mxGeometry x="1061" y="830" width="120" height="80" as="geometry" />
        </mxCell>
        <mxCell id="TcsEyUq_swscGmDeJt4e-36" value="&lt;span style=&quot;font-size: 14.6667px;&quot;&gt;View list of blood donors and recipients&lt;/span&gt;" style="ellipse;whiteSpace=wrap;html=1;" vertex="1" parent="j7tLyzOSQEP2s9YdGMt_-2">
          <mxGeometry x="860" y="830" width="120" height="80" as="geometry" />
        </mxCell>
        <mxCell id="TcsEyUq_swscGmDeJt4e-37" value="&lt;span style=&quot;font-size: 14.6667px;&quot;&gt;View employee statistics&lt;/span&gt;" style="ellipse;whiteSpace=wrap;html=1;" vertex="1" parent="j7tLyzOSQEP2s9YdGMt_-2">
          <mxGeometry x="1260" y="510" width="120" height="80" as="geometry" />
        </mxCell>
        <mxCell id="TcsEyUq_swscGmDeJt4e-38" value="Response feedback&#39;s member and staff" style="ellipse;whiteSpace=wrap;html=1;" vertex="1" parent="j7tLyzOSQEP2s9YdGMt_-2">
          <mxGeometry x="1061" y="510" width="120" height="80" as="geometry" />
        </mxCell>
        <mxCell id="TcsEyUq_swscGmDeJt4e-39" value="&lt;span style=&quot;font-size:11.0pt;line-height:107%;&lt;br/&gt;font-family:&amp;quot;Calibri&amp;quot;,sans-serif;mso-ascii-theme-font:minor-latin;mso-fareast-font-family:&lt;br/&gt;Calibri;mso-fareast-theme-font:minor-latin;mso-hansi-theme-font:minor-latin;&lt;br/&gt;mso-bidi-font-family:&amp;quot;Times New Roman&amp;quot;;mso-bidi-theme-font:minor-bidi;&lt;br/&gt;mso-ansi-language:EN-US;mso-fareast-language:EN-US;mso-bidi-language:AR-SA&quot;&gt;Create&lt;br/&gt;a blood donation schedule&lt;/span&gt;" style="ellipse;whiteSpace=wrap;html=1;" vertex="1" parent="j7tLyzOSQEP2s9YdGMt_-2">
          <mxGeometry x="860" y="510" width="120" height="80" as="geometry" />
        </mxCell>
        <mxCell id="TcsEyUq_swscGmDeJt4e-50" value="Confirm refund request" style="ellipse;whiteSpace=wrap;html=1;" vertex="1" parent="j7tLyzOSQEP2s9YdGMt_-2">
          <mxGeometry x="860" y="350" width="120" height="80" as="geometry" />
        </mxCell>
        <mxCell id="TcsEyUq_swscGmDeJt4e-52" value="advice for members" style="ellipse;whiteSpace=wrap;html=1;" vertex="1" parent="j7tLyzOSQEP2s9YdGMt_-2">
          <mxGeometry x="1061" y="190" width="120" height="80" as="geometry" />
        </mxCell>
        <mxCell id="TcsEyUq_swscGmDeJt4e-59" value="&lt;font style=&quot;font-size: 14.6667px;&quot;&gt;View information&#39;s member&lt;/font&gt;" style="ellipse;whiteSpace=wrap;html=1;" vertex="1" parent="j7tLyzOSQEP2s9YdGMt_-2">
          <mxGeometry x="860" y="190" width="120" height="80" as="geometry" />
        </mxCell>
        <mxCell id="j7tLyzOSQEP2s9YdGMt_-8" value="" style="endArrow=classic;html=1;rounded=0;exitX=0.5;exitY=0.5;exitDx=0;exitDy=0;exitPerimeter=0;entryX=0;entryY=1;entryDx=0;entryDy=0;" parent="1" source="j7tLyzOSQEP2s9YdGMt_-1" target="j7tLyzOSQEP2s9YdGMt_-3" edge="1">
          <mxGeometry width="50" height="50" relative="1" as="geometry">
            <mxPoint x="380" y="370" as="sourcePoint" />
            <mxPoint x="180" y="310" as="targetPoint" />
          </mxGeometry>
        </mxCell>
        <mxCell id="j7tLyzOSQEP2s9YdGMt_-10" value="" style="endArrow=classic;html=1;rounded=0;exitX=0.5;exitY=0.5;exitDx=0;exitDy=0;exitPerimeter=0;entryX=0.333;entryY=1;entryDx=0;entryDy=0;entryPerimeter=0;" parent="1" source="j7tLyzOSQEP2s9YdGMt_-1" target="j7tLyzOSQEP2s9YdGMt_-4" edge="1">
          <mxGeometry width="50" height="50" relative="1" as="geometry">
            <mxPoint x="380" y="370" as="sourcePoint" />
            <mxPoint x="430" y="320" as="targetPoint" />
          </mxGeometry>
        </mxCell>
        <mxCell id="j7tLyzOSQEP2s9YdGMt_-11" value="" style="endArrow=classic;html=1;rounded=0;exitX=0.5;exitY=0.5;exitDx=0;exitDy=0;exitPerimeter=0;entryX=0.365;entryY=1.026;entryDx=0;entryDy=0;entryPerimeter=0;" parent="1" source="j7tLyzOSQEP2s9YdGMt_-1" target="j7tLyzOSQEP2s9YdGMt_-5" edge="1">
          <mxGeometry width="50" height="50" relative="1" as="geometry">
            <mxPoint x="380" y="370" as="sourcePoint" />
            <mxPoint x="430" y="320" as="targetPoint" />
          </mxGeometry>
        </mxCell>
        <mxCell id="j7tLyzOSQEP2s9YdGMt_-17" value="" style="endArrow=classic;html=1;rounded=0;entryX=0;entryY=0.5;entryDx=0;entryDy=0;exitX=0.5;exitY=0.5;exitDx=0;exitDy=0;exitPerimeter=0;" parent="1" source="j7tLyzOSQEP2s9YdGMt_-1" target="j7tLyzOSQEP2s9YdGMt_-7" edge="1">
          <mxGeometry width="50" height="50" relative="1" as="geometry">
            <mxPoint x="120" y="310" as="sourcePoint" />
            <mxPoint x="274" y="268" as="targetPoint" />
          </mxGeometry>
        </mxCell>
        <mxCell id="j7tLyzOSQEP2s9YdGMt_-18" value="" style="endArrow=classic;html=1;rounded=0;entryX=0;entryY=0.375;entryDx=0;entryDy=0;entryPerimeter=0;" parent="1" target="j7tLyzOSQEP2s9YdGMt_-9" edge="1">
          <mxGeometry width="50" height="50" relative="1" as="geometry">
            <mxPoint x="130" y="120" as="sourcePoint" />
            <mxPoint x="274" y="298" as="targetPoint" />
          </mxGeometry>
        </mxCell>
        <mxCell id="j7tLyzOSQEP2s9YdGMt_-24" value="Member" style="shape=umlActor;verticalLabelPosition=bottom;verticalAlign=top;html=1;outlineConnect=0;" parent="1" vertex="1">
          <mxGeometry x="110" y="530" width="30" height="60" as="geometry" />
        </mxCell>
        <mxCell id="j7tLyzOSQEP2s9YdGMt_-29" value="" style="triangle;whiteSpace=wrap;html=1;rotation=-90;" parent="1" vertex="1">
          <mxGeometry x="115" y="190" width="20" height="10" as="geometry" />
        </mxCell>
        <mxCell id="j7tLyzOSQEP2s9YdGMt_-34" value="" style="endArrow=classic;html=1;rounded=0;entryX=0;entryY=0.5;entryDx=0;entryDy=0;" parent="1" target="j7tLyzOSQEP2s9YdGMt_-32" edge="1">
          <mxGeometry width="50" height="50" relative="1" as="geometry">
            <mxPoint x="140" y="570" as="sourcePoint" />
            <mxPoint x="550" y="500" as="targetPoint" />
          </mxGeometry>
        </mxCell>
        <mxCell id="j7tLyzOSQEP2s9YdGMt_-35" value="" style="endArrow=classic;html=1;rounded=0;entryX=0;entryY=0.5;entryDx=0;entryDy=0;" parent="1" target="j7tLyzOSQEP2s9YdGMt_-33" edge="1">
          <mxGeometry width="50" height="50" relative="1" as="geometry">
            <mxPoint x="140" y="570" as="sourcePoint" />
            <mxPoint x="550" y="500" as="targetPoint" />
            <Array as="points">
              <mxPoint x="410" y="600" />
            </Array>
          </mxGeometry>
        </mxCell>
        <mxCell id="j7tLyzOSQEP2s9YdGMt_-36" value="" style="endArrow=classic;html=1;rounded=0;entryX=0;entryY=0.5;entryDx=0;entryDy=0;" parent="1" target="j7tLyzOSQEP2s9YdGMt_-31" edge="1">
          <mxGeometry width="50" height="50" relative="1" as="geometry">
            <mxPoint x="140" y="570" as="sourcePoint" />
            <mxPoint x="550" y="500" as="targetPoint" />
            <Array as="points">
              <mxPoint x="600" y="590" />
            </Array>
          </mxGeometry>
        </mxCell>
        <mxCell id="j7tLyzOSQEP2s9YdGMt_-37" value="" style="endArrow=classic;html=1;rounded=0;entryX=0.004;entryY=0.622;entryDx=0;entryDy=0;entryPerimeter=0;" parent="1" target="j7tLyzOSQEP2s9YdGMt_-30" edge="1">
          <mxGeometry width="50" height="50" relative="1" as="geometry">
            <mxPoint x="140" y="570" as="sourcePoint" />
            <mxPoint x="550" y="500" as="targetPoint" />
          </mxGeometry>
        </mxCell>
        <mxCell id="j7tLyzOSQEP2s9YdGMt_-43" value="" style="endArrow=classic;html=1;rounded=0;entryX=0;entryY=0.5;entryDx=0;entryDy=0;" parent="1" target="j7tLyzOSQEP2s9YdGMt_-40" edge="1">
          <mxGeometry width="50" height="50" relative="1" as="geometry">
            <mxPoint x="140" y="570" as="sourcePoint" />
            <mxPoint x="550" y="630" as="targetPoint" />
          </mxGeometry>
        </mxCell>
        <mxCell id="j7tLyzOSQEP2s9YdGMt_-44" value="" style="endArrow=classic;html=1;rounded=0;entryX=0;entryY=0.5;entryDx=0;entryDy=0;" parent="1" target="j7tLyzOSQEP2s9YdGMt_-41" edge="1">
          <mxGeometry width="50" height="50" relative="1" as="geometry">
            <mxPoint x="140" y="570" as="sourcePoint" />
            <mxPoint x="550" y="630" as="targetPoint" />
            <Array as="points">
              <mxPoint x="240" y="730" />
              <mxPoint x="380" y="750" />
            </Array>
          </mxGeometry>
        </mxCell>
        <mxCell id="j7tLyzOSQEP2s9YdGMt_-45" value="" style="endArrow=classic;html=1;rounded=0;entryX=0;entryY=0.5;entryDx=0;entryDy=0;" parent="1" target="j7tLyzOSQEP2s9YdGMt_-42" edge="1">
          <mxGeometry width="50" height="50" relative="1" as="geometry">
            <mxPoint x="140" y="570" as="sourcePoint" />
            <mxPoint x="550" y="630" as="targetPoint" />
            <Array as="points">
              <mxPoint x="260" y="710" />
              <mxPoint x="620" y="760" />
            </Array>
          </mxGeometry>
        </mxCell>
        <mxCell id="j7tLyzOSQEP2s9YdGMt_-51" value="&amp;lt;&amp;lt;extend&amp;gt;&amp;gt;" style="endArrow=open;startArrow=none;endFill=0;startFill=0;endSize=8;html=1;verticalAlign=bottom;dashed=1;labelBackgroundColor=none;rounded=0;exitX=0;exitY=0.5;exitDx=0;exitDy=0;" parent="1" source="j7tLyzOSQEP2s9YdGMt_-48" edge="1">
          <mxGeometry width="160" relative="1" as="geometry">
            <mxPoint x="1030" y="730" as="sourcePoint" />
            <mxPoint x="760" y="800" as="targetPoint" />
            <Array as="points">
              <mxPoint x="860" y="720" />
            </Array>
          </mxGeometry>
        </mxCell>
        <mxCell id="j7tLyzOSQEP2s9YdGMt_-52" value="&amp;lt;&amp;lt;extend&amp;gt;&amp;gt;" style="endArrow=open;startArrow=none;endFill=0;startFill=0;endSize=8;html=1;verticalAlign=bottom;dashed=1;labelBackgroundColor=none;rounded=0;exitX=0;exitY=0.5;exitDx=0;exitDy=0;" parent="1" source="j7tLyzOSQEP2s9YdGMt_-46" edge="1">
          <mxGeometry width="160" relative="1" as="geometry">
            <mxPoint x="1030" y="740" as="sourcePoint" />
            <mxPoint x="760" y="800" as="targetPoint" />
          </mxGeometry>
        </mxCell>
        <mxCell id="TcsEyUq_swscGmDeJt4e-1" value="A&lt;span style=&quot;background-color: transparent; color: light-dark(rgb(0, 0, 0), rgb(255, 255, 255));&quot;&gt;dmin&lt;/span&gt;" style="shape=umlActor;verticalLabelPosition=bottom;verticalAlign=top;html=1;outlineConnect=0;" vertex="1" parent="1">
          <mxGeometry x="1715" y="770" width="30" height="60" as="geometry" />
        </mxCell>
        <mxCell id="TcsEyUq_swscGmDeJt4e-2" value="Staff" style="shape=umlActor;verticalLabelPosition=bottom;verticalAlign=top;html=1;outlineConnect=0;" vertex="1" parent="1">
          <mxGeometry x="1720" y="130" width="30" height="60" as="geometry" />
        </mxCell>
        <mxCell id="TcsEyUq_swscGmDeJt4e-4" value="" style="endArrow=classic;html=1;rounded=0;entryX=0.5;entryY=1;entryDx=0;entryDy=0;" edge="1" parent="1" target="TcsEyUq_swscGmDeJt4e-3">
          <mxGeometry width="50" height="50" relative="1" as="geometry">
            <mxPoint x="150" y="570" as="sourcePoint" />
            <mxPoint x="420" y="440" as="targetPoint" />
            <Array as="points">
              <mxPoint x="600" y="560" />
            </Array>
          </mxGeometry>
        </mxCell>
        <mxCell id="TcsEyUq_swscGmDeJt4e-14" value="" style="endArrow=classic;html=1;rounded=0;entryX=1;entryY=0.5;entryDx=0;entryDy=0;" edge="1" parent="1" target="TcsEyUq_swscGmDeJt4e-8">
          <mxGeometry width="50" height="50" relative="1" as="geometry">
            <mxPoint x="1720" y="150" as="sourcePoint" />
            <mxPoint x="1010" y="220" as="targetPoint" />
            <Array as="points">
              <mxPoint x="1650" y="50" />
            </Array>
          </mxGeometry>
        </mxCell>
        <mxCell id="TcsEyUq_swscGmDeJt4e-15" value="" style="endArrow=classic;html=1;rounded=0;entryX=1;entryY=0.5;entryDx=0;entryDy=0;exitX=0.5;exitY=0.5;exitDx=0;exitDy=0;exitPerimeter=0;" edge="1" parent="1" source="TcsEyUq_swscGmDeJt4e-2" target="TcsEyUq_swscGmDeJt4e-11">
          <mxGeometry width="50" height="50" relative="1" as="geometry">
            <mxPoint x="960" y="270" as="sourcePoint" />
            <mxPoint x="1010" y="220" as="targetPoint" />
            <Array as="points">
              <mxPoint x="1650" y="100" />
              <mxPoint x="1540" y="80" />
            </Array>
          </mxGeometry>
        </mxCell>
        <mxCell id="TcsEyUq_swscGmDeJt4e-16" value="" style="endArrow=classic;html=1;rounded=0;entryX=1;entryY=0.5;entryDx=0;entryDy=0;" edge="1" parent="1" target="TcsEyUq_swscGmDeJt4e-12">
          <mxGeometry width="50" height="50" relative="1" as="geometry">
            <mxPoint x="1720" y="150" as="sourcePoint" />
            <mxPoint x="1010" y="220" as="targetPoint" />
            <Array as="points">
              <mxPoint x="1500" y="80" />
              <mxPoint x="1250" y="40" />
            </Array>
          </mxGeometry>
        </mxCell>
        <mxCell id="TcsEyUq_swscGmDeJt4e-17" value="" style="endArrow=classic;html=1;rounded=0;entryX=1;entryY=0.5;entryDx=0;entryDy=0;" edge="1" parent="1" target="TcsEyUq_swscGmDeJt4e-9">
          <mxGeometry width="50" height="50" relative="1" as="geometry">
            <mxPoint x="1710" y="150" as="sourcePoint" />
            <mxPoint x="1010" y="220" as="targetPoint" />
            <Array as="points">
              <mxPoint x="1480" y="90" />
              <mxPoint x="1010" y="40" />
            </Array>
          </mxGeometry>
        </mxCell>
        <mxCell id="TcsEyUq_swscGmDeJt4e-18" value="" style="endArrow=classic;html=1;rounded=0;exitX=0;exitY=0.3333333333333333;exitDx=0;exitDy=0;exitPerimeter=0;entryX=1;entryY=0.5;entryDx=0;entryDy=0;" edge="1" parent="1" source="TcsEyUq_swscGmDeJt4e-2" target="TcsEyUq_swscGmDeJt4e-10">
          <mxGeometry width="50" height="50" relative="1" as="geometry">
            <mxPoint x="960" y="270" as="sourcePoint" />
            <mxPoint x="1550" y="160" as="targetPoint" />
          </mxGeometry>
        </mxCell>
        <mxCell id="TcsEyUq_swscGmDeJt4e-24" value="" style="endArrow=classic;html=1;rounded=0;entryX=0.394;entryY=0.996;entryDx=0;entryDy=0;entryPerimeter=0;" edge="1" parent="1" target="TcsEyUq_swscGmDeJt4e-23">
          <mxGeometry width="50" height="50" relative="1" as="geometry">
            <mxPoint x="140" y="570" as="sourcePoint" />
            <mxPoint x="890" y="390" as="targetPoint" />
            <Array as="points">
              <mxPoint x="210" y="410" />
            </Array>
          </mxGeometry>
        </mxCell>
        <mxCell id="TcsEyUq_swscGmDeJt4e-30" value="" style="endArrow=classic;html=1;rounded=0;entryX=1;entryY=0.5;entryDx=0;entryDy=0;" edge="1" parent="1" target="TcsEyUq_swscGmDeJt4e-6">
          <mxGeometry width="50" height="50" relative="1" as="geometry">
            <mxPoint x="1720" y="150" as="sourcePoint" />
            <mxPoint x="1060" y="390" as="targetPoint" />
          </mxGeometry>
        </mxCell>
        <mxCell id="TcsEyUq_swscGmDeJt4e-31" value="" style="endArrow=classic;html=1;rounded=0;entryX=1;entryY=0.5;entryDx=0;entryDy=0;" edge="1" parent="1" target="TcsEyUq_swscGmDeJt4e-7">
          <mxGeometry width="50" height="50" relative="1" as="geometry">
            <mxPoint x="1710" y="160" as="sourcePoint" />
            <mxPoint x="1060" y="390" as="targetPoint" />
            <Array as="points">
              <mxPoint x="1450" y="250" />
            </Array>
          </mxGeometry>
        </mxCell>
        <mxCell id="TcsEyUq_swscGmDeJt4e-42" value="" style="endArrow=classic;html=1;rounded=0;" edge="1" parent="1" target="TcsEyUq_swscGmDeJt4e-34">
          <mxGeometry width="50" height="50" relative="1" as="geometry">
            <mxPoint x="1710" y="800" as="sourcePoint" />
            <mxPoint x="990" y="390" as="targetPoint" />
          </mxGeometry>
        </mxCell>
        <mxCell id="TcsEyUq_swscGmDeJt4e-43" value="" style="endArrow=classic;html=1;rounded=0;entryX=1;entryY=0.5;entryDx=0;entryDy=0;" edge="1" parent="1" target="TcsEyUq_swscGmDeJt4e-35">
          <mxGeometry width="50" height="50" relative="1" as="geometry">
            <mxPoint x="1710" y="800" as="sourcePoint" />
            <mxPoint x="1420" y="590" as="targetPoint" />
            <Array as="points">
              <mxPoint x="1430" y="870" />
              <mxPoint x="1370" y="830" />
            </Array>
          </mxGeometry>
        </mxCell>
        <mxCell id="TcsEyUq_swscGmDeJt4e-44" value="" style="endArrow=classic;html=1;rounded=0;entryX=1;entryY=0.5;entryDx=0;entryDy=0;" edge="1" parent="1" target="TcsEyUq_swscGmDeJt4e-36">
          <mxGeometry width="50" height="50" relative="1" as="geometry">
            <mxPoint x="1710" y="800" as="sourcePoint" />
            <mxPoint x="1420" y="590" as="targetPoint" />
            <Array as="points">
              <mxPoint x="1400" y="910" />
              <mxPoint x="1200" y="870" />
            </Array>
          </mxGeometry>
        </mxCell>
        <mxCell id="TcsEyUq_swscGmDeJt4e-45" value="" style="endArrow=classic;html=1;rounded=0;entryX=1;entryY=0.5;entryDx=0;entryDy=0;" edge="1" parent="1" target="TcsEyUq_swscGmDeJt4e-32">
          <mxGeometry width="50" height="50" relative="1" as="geometry">
            <mxPoint x="1710" y="800" as="sourcePoint" />
            <mxPoint x="1420" y="590" as="targetPoint" />
          </mxGeometry>
        </mxCell>
        <mxCell id="TcsEyUq_swscGmDeJt4e-46" value="" style="endArrow=classic;html=1;rounded=0;entryX=1;entryY=0.5;entryDx=0;entryDy=0;" edge="1" parent="1" target="TcsEyUq_swscGmDeJt4e-33">
          <mxGeometry width="50" height="50" relative="1" as="geometry">
            <mxPoint x="1710" y="800" as="sourcePoint" />
            <mxPoint x="1420" y="590" as="targetPoint" />
          </mxGeometry>
        </mxCell>
        <mxCell id="TcsEyUq_swscGmDeJt4e-47" value="" style="endArrow=classic;html=1;rounded=0;entryX=1;entryY=0.5;entryDx=0;entryDy=0;" edge="1" parent="1" target="TcsEyUq_swscGmDeJt4e-37">
          <mxGeometry width="50" height="50" relative="1" as="geometry">
            <mxPoint x="1710" y="800" as="sourcePoint" />
            <mxPoint x="1420" y="590" as="targetPoint" />
          </mxGeometry>
        </mxCell>
        <mxCell id="TcsEyUq_swscGmDeJt4e-48" value="" style="endArrow=classic;html=1;rounded=0;entryX=1;entryY=0.5;entryDx=0;entryDy=0;" edge="1" parent="1" target="TcsEyUq_swscGmDeJt4e-38">
          <mxGeometry width="50" height="50" relative="1" as="geometry">
            <mxPoint x="1710" y="800" as="sourcePoint" />
            <mxPoint x="1420" y="590" as="targetPoint" />
            <Array as="points">
              <mxPoint x="1580" y="570" />
              <mxPoint x="1410" y="510" />
            </Array>
          </mxGeometry>
        </mxCell>
        <mxCell id="TcsEyUq_swscGmDeJt4e-49" value="" style="endArrow=classic;html=1;rounded=0;entryX=1;entryY=0.5;entryDx=0;entryDy=0;" edge="1" parent="1" target="TcsEyUq_swscGmDeJt4e-39">
          <mxGeometry width="50" height="50" relative="1" as="geometry">
            <mxPoint x="1710" y="800" as="sourcePoint" />
            <mxPoint x="1420" y="590" as="targetPoint" />
            <Array as="points">
              <mxPoint x="1570" y="610" />
              <mxPoint x="1230" y="530" />
            </Array>
          </mxGeometry>
        </mxCell>
        <mxCell id="TcsEyUq_swscGmDeJt4e-51" value="" style="endArrow=classic;html=1;rounded=0;entryX=1;entryY=0.5;entryDx=0;entryDy=0;" edge="1" parent="1" target="TcsEyUq_swscGmDeJt4e-50">
          <mxGeometry width="50" height="50" relative="1" as="geometry">
            <mxPoint x="1710" y="150" as="sourcePoint" />
            <mxPoint x="1030" y="390" as="targetPoint" />
            <Array as="points">
              <mxPoint x="1220" y="290" />
            </Array>
          </mxGeometry>
        </mxCell>
        <mxCell id="TcsEyUq_swscGmDeJt4e-53" value="" style="endArrow=classic;html=1;rounded=0;entryX=1;entryY=0.5;entryDx=0;entryDy=0;" edge="1" parent="1" target="TcsEyUq_swscGmDeJt4e-52">
          <mxGeometry width="50" height="50" relative="1" as="geometry">
            <mxPoint x="1710" y="150" as="sourcePoint" />
            <mxPoint x="1030" y="390" as="targetPoint" />
            <Array as="points">
              <mxPoint x="1480" y="100" />
              <mxPoint x="1400" y="110" />
            </Array>
          </mxGeometry>
        </mxCell>
        <mxCell id="TcsEyUq_swscGmDeJt4e-56" value="" style="endArrow=none;html=1;rounded=0;entryX=0;entryY=0.5;entryDx=0;entryDy=0;exitX=0.5;exitY=0;exitDx=0;exitDy=0;exitPerimeter=0;" edge="1" parent="1" source="j7tLyzOSQEP2s9YdGMt_-24" target="j7tLyzOSQEP2s9YdGMt_-29">
          <mxGeometry width="50" height="50" relative="1" as="geometry">
            <mxPoint x="-230" y="440" as="sourcePoint" />
            <mxPoint x="-180" y="390" as="targetPoint" />
          </mxGeometry>
        </mxCell>
        <mxCell id="TcsEyUq_swscGmDeJt4e-57" value="" style="endArrow=none;html=1;rounded=0;entryX=0;entryY=0.5;entryDx=0;entryDy=0;" edge="1" parent="1" target="TcsEyUq_swscGmDeJt4e-58">
          <mxGeometry width="50" height="50" relative="1" as="geometry">
            <mxPoint x="1730" y="760" as="sourcePoint" />
            <mxPoint x="1730" y="220" as="targetPoint" />
          </mxGeometry>
        </mxCell>
        <mxCell id="TcsEyUq_swscGmDeJt4e-58" value="" style="triangle;whiteSpace=wrap;html=1;rotation=-90;" vertex="1" parent="1">
          <mxGeometry x="1725" y="220" width="20" height="10" as="geometry" />
        </mxCell>
        <mxCell id="TcsEyUq_swscGmDeJt4e-60" value="" style="endArrow=classic;html=1;rounded=0;entryX=1;entryY=0.5;entryDx=0;entryDy=0;" edge="1" parent="1" target="TcsEyUq_swscGmDeJt4e-59">
          <mxGeometry width="50" height="50" relative="1" as="geometry">
            <mxPoint x="1720" y="150" as="sourcePoint" />
            <mxPoint x="870" y="290" as="targetPoint" />
            <Array as="points">
              <mxPoint x="1360" y="240" />
              <mxPoint x="1210" y="220" />
            </Array>
          </mxGeometry>
        </mxCell>
        <mxCell id="TcsEyUq_swscGmDeJt4e-61" value="&lt;span style=&quot;font-size: 20px; font-weight: 700;&quot;&gt;Blood Donation Support System&lt;/span&gt;" style="text;html=1;align=center;verticalAlign=middle;resizable=0;points=[];autosize=1;strokeColor=none;fillColor=none;" vertex="1" parent="1">
          <mxGeometry x="760" y="-110" width="330" height="40" as="geometry" />
        </mxCell>
      </root>
    </mxGraphModel>
  </diagram>
</mxfile>
